<mxfile host="www.draw.io" modified="2020-04-10T12:44:39.727Z" agent="5.0 (Windows NT 10.0; Win64; x64) AppleWebKit/537.36 (KHTML, like Gecko) Chrome/80.0.3987.163 Safari/537.36" etag="qnAxii9125UUYd5S8OaY" version="12.9.10" type="github">
  <diagram id="nrrCunUTLWCAZY7xvAY5" name="Page-1">
    <mxGraphModel dx="1422" dy="728" grid="1" gridSize="10" guides="1" tooltips="1" connect="1" arrows="1" fold="1" page="1" pageScale="1" pageWidth="850" pageHeight="1100" math="0" shadow="0">
      <root>
        <mxCell id="0" />
        <mxCell id="1" parent="0" />
        <mxCell id="IhBtIeaMWSlyPbEXrIN0-1" value="0" style="whiteSpace=wrap;html=1;aspect=fixed;" vertex="1" parent="1">
          <mxGeometry x="160" y="360" width="40" height="40" as="geometry" />
        </mxCell>
        <mxCell id="IhBtIeaMWSlyPbEXrIN0-2" value="0" style="whiteSpace=wrap;html=1;aspect=fixed;" vertex="1" parent="1">
          <mxGeometry x="200" y="360" width="40" height="40" as="geometry" />
        </mxCell>
        <mxCell id="IhBtIeaMWSlyPbEXrIN0-3" value="" style="whiteSpace=wrap;html=1;aspect=fixed;" vertex="1" parent="1">
          <mxGeometry x="240" y="360" width="40" height="40" as="geometry" />
        </mxCell>
        <mxCell id="IhBtIeaMWSlyPbEXrIN0-4" value="1" style="whiteSpace=wrap;html=1;aspect=fixed;" vertex="1" parent="1">
          <mxGeometry x="280" y="360" width="40" height="40" as="geometry" />
        </mxCell>
        <mxCell id="IhBtIeaMWSlyPbEXrIN0-5" value="0" style="whiteSpace=wrap;html=1;aspect=fixed;" vertex="1" parent="1">
          <mxGeometry x="280" y="400" width="40" height="40" as="geometry" />
        </mxCell>
        <mxCell id="IhBtIeaMWSlyPbEXrIN0-6" value="" style="whiteSpace=wrap;html=1;aspect=fixed;" vertex="1" parent="1">
          <mxGeometry x="240" y="400" width="40" height="40" as="geometry" />
        </mxCell>
        <mxCell id="IhBtIeaMWSlyPbEXrIN0-7" value="0" style="whiteSpace=wrap;html=1;aspect=fixed;" vertex="1" parent="1">
          <mxGeometry x="200" y="400" width="40" height="40" as="geometry" />
        </mxCell>
        <mxCell id="IhBtIeaMWSlyPbEXrIN0-8" value="0" style="whiteSpace=wrap;html=1;aspect=fixed;" vertex="1" parent="1">
          <mxGeometry x="160" y="400" width="40" height="40" as="geometry" />
        </mxCell>
        <mxCell id="IhBtIeaMWSlyPbEXrIN0-9" value="" style="whiteSpace=wrap;html=1;aspect=fixed;" vertex="1" parent="1">
          <mxGeometry x="160" y="440" width="40" height="40" as="geometry" />
        </mxCell>
        <mxCell id="IhBtIeaMWSlyPbEXrIN0-10" value="" style="whiteSpace=wrap;html=1;aspect=fixed;" vertex="1" parent="1">
          <mxGeometry x="200" y="440" width="40" height="40" as="geometry" />
        </mxCell>
        <mxCell id="IhBtIeaMWSlyPbEXrIN0-11" value="" style="whiteSpace=wrap;html=1;aspect=fixed;" vertex="1" parent="1">
          <mxGeometry x="240" y="440" width="40" height="40" as="geometry" />
        </mxCell>
        <mxCell id="IhBtIeaMWSlyPbEXrIN0-12" value="" style="whiteSpace=wrap;html=1;aspect=fixed;" vertex="1" parent="1">
          <mxGeometry x="280" y="440" width="40" height="40" as="geometry" />
        </mxCell>
        <mxCell id="IhBtIeaMWSlyPbEXrIN0-13" value="1" style="whiteSpace=wrap;html=1;aspect=fixed;" vertex="1" parent="1">
          <mxGeometry x="160" y="480" width="40" height="40" as="geometry" />
        </mxCell>
        <mxCell id="IhBtIeaMWSlyPbEXrIN0-14" value="0" style="whiteSpace=wrap;html=1;aspect=fixed;" vertex="1" parent="1">
          <mxGeometry x="200" y="480" width="40" height="40" as="geometry" />
        </mxCell>
        <mxCell id="IhBtIeaMWSlyPbEXrIN0-15" value="" style="whiteSpace=wrap;html=1;aspect=fixed;" vertex="1" parent="1">
          <mxGeometry x="240" y="480" width="40" height="40" as="geometry" />
        </mxCell>
        <mxCell id="IhBtIeaMWSlyPbEXrIN0-16" value="1" style="whiteSpace=wrap;html=1;aspect=fixed;" vertex="1" parent="1">
          <mxGeometry x="280" y="480" width="40" height="40" as="geometry" />
        </mxCell>
        <mxCell id="IhBtIeaMWSlyPbEXrIN0-17" value="" style="endArrow=none;html=1;entryX=0;entryY=0;entryDx=0;entryDy=0;" edge="1" parent="1" target="IhBtIeaMWSlyPbEXrIN0-1">
          <mxGeometry width="50" height="50" relative="1" as="geometry">
            <mxPoint x="120" y="320" as="sourcePoint" />
            <mxPoint x="150" y="340" as="targetPoint" />
          </mxGeometry>
        </mxCell>
        <mxCell id="IhBtIeaMWSlyPbEXrIN0-18" value="x&lt;sup&gt;+&lt;/sup&gt;, x&lt;sup&gt;-&lt;/sup&gt;" style="text;html=1;align=center;verticalAlign=middle;resizable=0;points=[];autosize=1;rotation=45;" vertex="1" parent="1">
          <mxGeometry x="125" y="320" width="40" height="20" as="geometry" />
        </mxCell>
        <mxCell id="IhBtIeaMWSlyPbEXrIN0-19" value="y&lt;sup&gt;+&lt;/sup&gt;, y&lt;span style=&quot;font-size: 10px&quot;&gt;&lt;sup&gt;-&lt;/sup&gt;&lt;/span&gt;" style="text;html=1;align=center;verticalAlign=middle;resizable=0;points=[];autosize=1;rotation=45;" vertex="1" parent="1">
          <mxGeometry x="111" y="335" width="40" height="20" as="geometry" />
        </mxCell>
        <mxCell id="IhBtIeaMWSlyPbEXrIN0-20" value="00" style="text;html=1;align=center;verticalAlign=middle;resizable=0;points=[];autosize=1;" vertex="1" parent="1">
          <mxGeometry x="165" y="340" width="30" height="20" as="geometry" />
        </mxCell>
        <mxCell id="IhBtIeaMWSlyPbEXrIN0-21" value="01" style="text;html=1;align=center;verticalAlign=middle;resizable=0;points=[];autosize=1;" vertex="1" parent="1">
          <mxGeometry x="205" y="340" width="30" height="20" as="geometry" />
        </mxCell>
        <mxCell id="IhBtIeaMWSlyPbEXrIN0-22" value="11" style="text;html=1;align=center;verticalAlign=middle;resizable=0;points=[];autosize=1;" vertex="1" parent="1">
          <mxGeometry x="245" y="340" width="30" height="20" as="geometry" />
        </mxCell>
        <mxCell id="IhBtIeaMWSlyPbEXrIN0-23" value="10" style="text;html=1;align=center;verticalAlign=middle;resizable=0;points=[];autosize=1;" vertex="1" parent="1">
          <mxGeometry x="285" y="340" width="30" height="20" as="geometry" />
        </mxCell>
        <mxCell id="IhBtIeaMWSlyPbEXrIN0-24" value="00" style="text;html=1;align=center;verticalAlign=middle;resizable=0;points=[];autosize=1;" vertex="1" parent="1">
          <mxGeometry x="125" y="370" width="30" height="20" as="geometry" />
        </mxCell>
        <mxCell id="IhBtIeaMWSlyPbEXrIN0-25" value="01" style="text;html=1;align=center;verticalAlign=middle;resizable=0;points=[];autosize=1;" vertex="1" parent="1">
          <mxGeometry x="125" y="410" width="30" height="20" as="geometry" />
        </mxCell>
        <mxCell id="IhBtIeaMWSlyPbEXrIN0-26" value="11" style="text;html=1;align=center;verticalAlign=middle;resizable=0;points=[];autosize=1;" vertex="1" parent="1">
          <mxGeometry x="125" y="450" width="30" height="20" as="geometry" />
        </mxCell>
        <mxCell id="IhBtIeaMWSlyPbEXrIN0-27" value="10" style="text;html=1;align=center;verticalAlign=middle;resizable=0;points=[];autosize=1;" vertex="1" parent="1">
          <mxGeometry x="125" y="490" width="30" height="20" as="geometry" />
        </mxCell>
        <mxCell id="IhBtIeaMWSlyPbEXrIN0-28" value="0" style="whiteSpace=wrap;html=1;aspect=fixed;" vertex="1" parent="1">
          <mxGeometry x="399" y="360" width="40" height="40" as="geometry" />
        </mxCell>
        <mxCell id="IhBtIeaMWSlyPbEXrIN0-29" value="0" style="whiteSpace=wrap;html=1;aspect=fixed;" vertex="1" parent="1">
          <mxGeometry x="439" y="360" width="40" height="40" as="geometry" />
        </mxCell>
        <mxCell id="IhBtIeaMWSlyPbEXrIN0-30" value="" style="whiteSpace=wrap;html=1;aspect=fixed;" vertex="1" parent="1">
          <mxGeometry x="479" y="360" width="40" height="40" as="geometry" />
        </mxCell>
        <mxCell id="IhBtIeaMWSlyPbEXrIN0-31" value="0" style="whiteSpace=wrap;html=1;aspect=fixed;" vertex="1" parent="1">
          <mxGeometry x="519" y="360" width="40" height="40" as="geometry" />
        </mxCell>
        <mxCell id="IhBtIeaMWSlyPbEXrIN0-32" value="0" style="whiteSpace=wrap;html=1;aspect=fixed;" vertex="1" parent="1">
          <mxGeometry x="519" y="400" width="40" height="40" as="geometry" />
        </mxCell>
        <mxCell id="IhBtIeaMWSlyPbEXrIN0-33" value="" style="whiteSpace=wrap;html=1;aspect=fixed;" vertex="1" parent="1">
          <mxGeometry x="479" y="400" width="40" height="40" as="geometry" />
        </mxCell>
        <mxCell id="IhBtIeaMWSlyPbEXrIN0-34" value="0" style="whiteSpace=wrap;html=1;aspect=fixed;" vertex="1" parent="1">
          <mxGeometry x="439" y="400" width="40" height="40" as="geometry" />
        </mxCell>
        <mxCell id="IhBtIeaMWSlyPbEXrIN0-35" value="0" style="whiteSpace=wrap;html=1;aspect=fixed;" vertex="1" parent="1">
          <mxGeometry x="399" y="400" width="40" height="40" as="geometry" />
        </mxCell>
        <mxCell id="IhBtIeaMWSlyPbEXrIN0-36" value="" style="whiteSpace=wrap;html=1;aspect=fixed;" vertex="1" parent="1">
          <mxGeometry x="399" y="440" width="40" height="40" as="geometry" />
        </mxCell>
        <mxCell id="IhBtIeaMWSlyPbEXrIN0-37" value="" style="whiteSpace=wrap;html=1;aspect=fixed;" vertex="1" parent="1">
          <mxGeometry x="439" y="440" width="40" height="40" as="geometry" />
        </mxCell>
        <mxCell id="IhBtIeaMWSlyPbEXrIN0-38" value="" style="whiteSpace=wrap;html=1;aspect=fixed;" vertex="1" parent="1">
          <mxGeometry x="479" y="440" width="40" height="40" as="geometry" />
        </mxCell>
        <mxCell id="IhBtIeaMWSlyPbEXrIN0-39" value="" style="whiteSpace=wrap;html=1;aspect=fixed;" vertex="1" parent="1">
          <mxGeometry x="519" y="440" width="40" height="40" as="geometry" />
        </mxCell>
        <mxCell id="IhBtIeaMWSlyPbEXrIN0-40" value="0" style="whiteSpace=wrap;html=1;aspect=fixed;" vertex="1" parent="1">
          <mxGeometry x="399" y="480" width="40" height="40" as="geometry" />
        </mxCell>
        <mxCell id="IhBtIeaMWSlyPbEXrIN0-41" value="0" style="whiteSpace=wrap;html=1;aspect=fixed;" vertex="1" parent="1">
          <mxGeometry x="439" y="480" width="40" height="40" as="geometry" />
        </mxCell>
        <mxCell id="IhBtIeaMWSlyPbEXrIN0-42" value="" style="whiteSpace=wrap;html=1;aspect=fixed;" vertex="1" parent="1">
          <mxGeometry x="479" y="480" width="40" height="40" as="geometry" />
        </mxCell>
        <mxCell id="IhBtIeaMWSlyPbEXrIN0-43" value="1" style="whiteSpace=wrap;html=1;aspect=fixed;" vertex="1" parent="1">
          <mxGeometry x="519" y="480" width="40" height="40" as="geometry" />
        </mxCell>
        <mxCell id="IhBtIeaMWSlyPbEXrIN0-44" value="" style="endArrow=none;html=1;entryX=0;entryY=0;entryDx=0;entryDy=0;" edge="1" parent="1" target="IhBtIeaMWSlyPbEXrIN0-28">
          <mxGeometry width="50" height="50" relative="1" as="geometry">
            <mxPoint x="359" y="320" as="sourcePoint" />
            <mxPoint x="389" y="340" as="targetPoint" />
          </mxGeometry>
        </mxCell>
        <mxCell id="IhBtIeaMWSlyPbEXrIN0-45" value="x&lt;sup&gt;+&lt;/sup&gt;, x&lt;sup&gt;-&lt;/sup&gt;" style="text;html=1;align=center;verticalAlign=middle;resizable=0;points=[];autosize=1;rotation=45;" vertex="1" parent="1">
          <mxGeometry x="364" y="320" width="40" height="20" as="geometry" />
        </mxCell>
        <mxCell id="IhBtIeaMWSlyPbEXrIN0-46" value="y&lt;sup&gt;+&lt;/sup&gt;, y&lt;span style=&quot;font-size: 10px&quot;&gt;&lt;sup&gt;-&lt;/sup&gt;&lt;/span&gt;" style="text;html=1;align=center;verticalAlign=middle;resizable=0;points=[];autosize=1;rotation=45;" vertex="1" parent="1">
          <mxGeometry x="350" y="335" width="40" height="20" as="geometry" />
        </mxCell>
        <mxCell id="IhBtIeaMWSlyPbEXrIN0-47" value="00" style="text;html=1;align=center;verticalAlign=middle;resizable=0;points=[];autosize=1;" vertex="1" parent="1">
          <mxGeometry x="404" y="340" width="30" height="20" as="geometry" />
        </mxCell>
        <mxCell id="IhBtIeaMWSlyPbEXrIN0-48" value="01" style="text;html=1;align=center;verticalAlign=middle;resizable=0;points=[];autosize=1;" vertex="1" parent="1">
          <mxGeometry x="444" y="340" width="30" height="20" as="geometry" />
        </mxCell>
        <mxCell id="IhBtIeaMWSlyPbEXrIN0-49" value="11" style="text;html=1;align=center;verticalAlign=middle;resizable=0;points=[];autosize=1;" vertex="1" parent="1">
          <mxGeometry x="484" y="340" width="30" height="20" as="geometry" />
        </mxCell>
        <mxCell id="IhBtIeaMWSlyPbEXrIN0-50" value="10" style="text;html=1;align=center;verticalAlign=middle;resizable=0;points=[];autosize=1;" vertex="1" parent="1">
          <mxGeometry x="524" y="340" width="30" height="20" as="geometry" />
        </mxCell>
        <mxCell id="IhBtIeaMWSlyPbEXrIN0-51" value="00" style="text;html=1;align=center;verticalAlign=middle;resizable=0;points=[];autosize=1;" vertex="1" parent="1">
          <mxGeometry x="364" y="370" width="30" height="20" as="geometry" />
        </mxCell>
        <mxCell id="IhBtIeaMWSlyPbEXrIN0-52" value="01" style="text;html=1;align=center;verticalAlign=middle;resizable=0;points=[];autosize=1;" vertex="1" parent="1">
          <mxGeometry x="364" y="410" width="30" height="20" as="geometry" />
        </mxCell>
        <mxCell id="IhBtIeaMWSlyPbEXrIN0-53" value="11" style="text;html=1;align=center;verticalAlign=middle;resizable=0;points=[];autosize=1;" vertex="1" parent="1">
          <mxGeometry x="364" y="450" width="30" height="20" as="geometry" />
        </mxCell>
        <mxCell id="IhBtIeaMWSlyPbEXrIN0-54" value="10" style="text;html=1;align=center;verticalAlign=middle;resizable=0;points=[];autosize=1;" vertex="1" parent="1">
          <mxGeometry x="364" y="490" width="30" height="20" as="geometry" />
        </mxCell>
        <mxCell id="IhBtIeaMWSlyPbEXrIN0-55" value="0" style="whiteSpace=wrap;html=1;aspect=fixed;" vertex="1" parent="1">
          <mxGeometry x="160" y="640" width="40" height="40" as="geometry" />
        </mxCell>
        <mxCell id="IhBtIeaMWSlyPbEXrIN0-56" value="0" style="whiteSpace=wrap;html=1;aspect=fixed;" vertex="1" parent="1">
          <mxGeometry x="200" y="640" width="40" height="40" as="geometry" />
        </mxCell>
        <mxCell id="IhBtIeaMWSlyPbEXrIN0-57" value="" style="whiteSpace=wrap;html=1;aspect=fixed;" vertex="1" parent="1">
          <mxGeometry x="240" y="640" width="40" height="40" as="geometry" />
        </mxCell>
        <mxCell id="IhBtIeaMWSlyPbEXrIN0-58" value="0" style="whiteSpace=wrap;html=1;aspect=fixed;" vertex="1" parent="1">
          <mxGeometry x="280" y="640" width="40" height="40" as="geometry" />
        </mxCell>
        <mxCell id="IhBtIeaMWSlyPbEXrIN0-59" value="0" style="whiteSpace=wrap;html=1;aspect=fixed;" vertex="1" parent="1">
          <mxGeometry x="280" y="680" width="40" height="40" as="geometry" />
        </mxCell>
        <mxCell id="IhBtIeaMWSlyPbEXrIN0-60" value="" style="whiteSpace=wrap;html=1;aspect=fixed;" vertex="1" parent="1">
          <mxGeometry x="240" y="680" width="40" height="40" as="geometry" />
        </mxCell>
        <mxCell id="IhBtIeaMWSlyPbEXrIN0-61" value="1" style="whiteSpace=wrap;html=1;aspect=fixed;" vertex="1" parent="1">
          <mxGeometry x="200" y="680" width="40" height="40" as="geometry" />
        </mxCell>
        <mxCell id="IhBtIeaMWSlyPbEXrIN0-62" value="0" style="whiteSpace=wrap;html=1;aspect=fixed;" vertex="1" parent="1">
          <mxGeometry x="160" y="680" width="40" height="40" as="geometry" />
        </mxCell>
        <mxCell id="IhBtIeaMWSlyPbEXrIN0-63" value="" style="whiteSpace=wrap;html=1;aspect=fixed;" vertex="1" parent="1">
          <mxGeometry x="160" y="720" width="40" height="40" as="geometry" />
        </mxCell>
        <mxCell id="IhBtIeaMWSlyPbEXrIN0-64" value="" style="whiteSpace=wrap;html=1;aspect=fixed;" vertex="1" parent="1">
          <mxGeometry x="200" y="720" width="40" height="40" as="geometry" />
        </mxCell>
        <mxCell id="IhBtIeaMWSlyPbEXrIN0-65" value="" style="whiteSpace=wrap;html=1;aspect=fixed;" vertex="1" parent="1">
          <mxGeometry x="240" y="720" width="40" height="40" as="geometry" />
        </mxCell>
        <mxCell id="IhBtIeaMWSlyPbEXrIN0-66" value="" style="whiteSpace=wrap;html=1;aspect=fixed;" vertex="1" parent="1">
          <mxGeometry x="280" y="720" width="40" height="40" as="geometry" />
        </mxCell>
        <mxCell id="IhBtIeaMWSlyPbEXrIN0-67" value="0" style="whiteSpace=wrap;html=1;aspect=fixed;" vertex="1" parent="1">
          <mxGeometry x="160" y="760" width="40" height="40" as="geometry" />
        </mxCell>
        <mxCell id="IhBtIeaMWSlyPbEXrIN0-68" value="0" style="whiteSpace=wrap;html=1;aspect=fixed;" vertex="1" parent="1">
          <mxGeometry x="200" y="760" width="40" height="40" as="geometry" />
        </mxCell>
        <mxCell id="IhBtIeaMWSlyPbEXrIN0-69" value="" style="whiteSpace=wrap;html=1;aspect=fixed;" vertex="1" parent="1">
          <mxGeometry x="240" y="760" width="40" height="40" as="geometry" />
        </mxCell>
        <mxCell id="IhBtIeaMWSlyPbEXrIN0-70" value="0" style="whiteSpace=wrap;html=1;aspect=fixed;" vertex="1" parent="1">
          <mxGeometry x="280" y="760" width="40" height="40" as="geometry" />
        </mxCell>
        <mxCell id="IhBtIeaMWSlyPbEXrIN0-71" value="" style="endArrow=none;html=1;entryX=0;entryY=0;entryDx=0;entryDy=0;" edge="1" parent="1" target="IhBtIeaMWSlyPbEXrIN0-55">
          <mxGeometry width="50" height="50" relative="1" as="geometry">
            <mxPoint x="120" y="600" as="sourcePoint" />
            <mxPoint x="150" y="620" as="targetPoint" />
          </mxGeometry>
        </mxCell>
        <mxCell id="IhBtIeaMWSlyPbEXrIN0-72" value="x&lt;sup&gt;+&lt;/sup&gt;, x&lt;sup&gt;-&lt;/sup&gt;" style="text;html=1;align=center;verticalAlign=middle;resizable=0;points=[];autosize=1;rotation=45;" vertex="1" parent="1">
          <mxGeometry x="125" y="600" width="40" height="20" as="geometry" />
        </mxCell>
        <mxCell id="IhBtIeaMWSlyPbEXrIN0-73" value="y&lt;sup&gt;+&lt;/sup&gt;, y&lt;span style=&quot;font-size: 10px&quot;&gt;&lt;sup&gt;-&lt;/sup&gt;&lt;/span&gt;" style="text;html=1;align=center;verticalAlign=middle;resizable=0;points=[];autosize=1;rotation=45;" vertex="1" parent="1">
          <mxGeometry x="111" y="615" width="40" height="20" as="geometry" />
        </mxCell>
        <mxCell id="IhBtIeaMWSlyPbEXrIN0-74" value="00" style="text;html=1;align=center;verticalAlign=middle;resizable=0;points=[];autosize=1;" vertex="1" parent="1">
          <mxGeometry x="165" y="620" width="30" height="20" as="geometry" />
        </mxCell>
        <mxCell id="IhBtIeaMWSlyPbEXrIN0-75" value="01" style="text;html=1;align=center;verticalAlign=middle;resizable=0;points=[];autosize=1;" vertex="1" parent="1">
          <mxGeometry x="205" y="620" width="30" height="20" as="geometry" />
        </mxCell>
        <mxCell id="IhBtIeaMWSlyPbEXrIN0-76" value="11" style="text;html=1;align=center;verticalAlign=middle;resizable=0;points=[];autosize=1;" vertex="1" parent="1">
          <mxGeometry x="245" y="620" width="30" height="20" as="geometry" />
        </mxCell>
        <mxCell id="IhBtIeaMWSlyPbEXrIN0-77" value="10" style="text;html=1;align=center;verticalAlign=middle;resizable=0;points=[];autosize=1;" vertex="1" parent="1">
          <mxGeometry x="285" y="620" width="30" height="20" as="geometry" />
        </mxCell>
        <mxCell id="IhBtIeaMWSlyPbEXrIN0-78" value="00" style="text;html=1;align=center;verticalAlign=middle;resizable=0;points=[];autosize=1;" vertex="1" parent="1">
          <mxGeometry x="125" y="650" width="30" height="20" as="geometry" />
        </mxCell>
        <mxCell id="IhBtIeaMWSlyPbEXrIN0-79" value="01" style="text;html=1;align=center;verticalAlign=middle;resizable=0;points=[];autosize=1;" vertex="1" parent="1">
          <mxGeometry x="125" y="690" width="30" height="20" as="geometry" />
        </mxCell>
        <mxCell id="IhBtIeaMWSlyPbEXrIN0-80" value="11" style="text;html=1;align=center;verticalAlign=middle;resizable=0;points=[];autosize=1;" vertex="1" parent="1">
          <mxGeometry x="125" y="730" width="30" height="20" as="geometry" />
        </mxCell>
        <mxCell id="IhBtIeaMWSlyPbEXrIN0-81" value="10" style="text;html=1;align=center;verticalAlign=middle;resizable=0;points=[];autosize=1;" vertex="1" parent="1">
          <mxGeometry x="125" y="770" width="30" height="20" as="geometry" />
        </mxCell>
        <mxCell id="IhBtIeaMWSlyPbEXrIN0-82" value="0" style="whiteSpace=wrap;html=1;aspect=fixed;" vertex="1" parent="1">
          <mxGeometry x="399" y="640" width="40" height="40" as="geometry" />
        </mxCell>
        <mxCell id="IhBtIeaMWSlyPbEXrIN0-83" value="1" style="whiteSpace=wrap;html=1;aspect=fixed;" vertex="1" parent="1">
          <mxGeometry x="439" y="640" width="40" height="40" as="geometry" />
        </mxCell>
        <mxCell id="IhBtIeaMWSlyPbEXrIN0-84" value="" style="whiteSpace=wrap;html=1;aspect=fixed;" vertex="1" parent="1">
          <mxGeometry x="479" y="640" width="40" height="40" as="geometry" />
        </mxCell>
        <mxCell id="IhBtIeaMWSlyPbEXrIN0-85" value="0" style="whiteSpace=wrap;html=1;aspect=fixed;" vertex="1" parent="1">
          <mxGeometry x="519" y="640" width="40" height="40" as="geometry" />
        </mxCell>
        <mxCell id="IhBtIeaMWSlyPbEXrIN0-86" value="0" style="whiteSpace=wrap;html=1;aspect=fixed;" vertex="1" parent="1">
          <mxGeometry x="519" y="680" width="40" height="40" as="geometry" />
        </mxCell>
        <mxCell id="IhBtIeaMWSlyPbEXrIN0-87" value="" style="whiteSpace=wrap;html=1;aspect=fixed;" vertex="1" parent="1">
          <mxGeometry x="479" y="680" width="40" height="40" as="geometry" />
        </mxCell>
        <mxCell id="IhBtIeaMWSlyPbEXrIN0-88" value="1" style="whiteSpace=wrap;html=1;aspect=fixed;" vertex="1" parent="1">
          <mxGeometry x="439" y="680" width="40" height="40" as="geometry" />
        </mxCell>
        <mxCell id="IhBtIeaMWSlyPbEXrIN0-89" value="1" style="whiteSpace=wrap;html=1;aspect=fixed;" vertex="1" parent="1">
          <mxGeometry x="399" y="680" width="40" height="40" as="geometry" />
        </mxCell>
        <mxCell id="IhBtIeaMWSlyPbEXrIN0-90" value="" style="whiteSpace=wrap;html=1;aspect=fixed;" vertex="1" parent="1">
          <mxGeometry x="399" y="720" width="40" height="40" as="geometry" />
        </mxCell>
        <mxCell id="IhBtIeaMWSlyPbEXrIN0-91" value="" style="whiteSpace=wrap;html=1;aspect=fixed;" vertex="1" parent="1">
          <mxGeometry x="439" y="720" width="40" height="40" as="geometry" />
        </mxCell>
        <mxCell id="IhBtIeaMWSlyPbEXrIN0-92" value="" style="whiteSpace=wrap;html=1;aspect=fixed;" vertex="1" parent="1">
          <mxGeometry x="479" y="720" width="40" height="40" as="geometry" />
        </mxCell>
        <mxCell id="IhBtIeaMWSlyPbEXrIN0-93" value="" style="whiteSpace=wrap;html=1;aspect=fixed;" vertex="1" parent="1">
          <mxGeometry x="519" y="720" width="40" height="40" as="geometry" />
        </mxCell>
        <mxCell id="IhBtIeaMWSlyPbEXrIN0-94" value="0" style="whiteSpace=wrap;html=1;aspect=fixed;" vertex="1" parent="1">
          <mxGeometry x="399" y="760" width="40" height="40" as="geometry" />
        </mxCell>
        <mxCell id="IhBtIeaMWSlyPbEXrIN0-95" value="0" style="whiteSpace=wrap;html=1;aspect=fixed;" vertex="1" parent="1">
          <mxGeometry x="439" y="760" width="40" height="40" as="geometry" />
        </mxCell>
        <mxCell id="IhBtIeaMWSlyPbEXrIN0-96" value="" style="whiteSpace=wrap;html=1;aspect=fixed;" vertex="1" parent="1">
          <mxGeometry x="479" y="760" width="40" height="40" as="geometry" />
        </mxCell>
        <mxCell id="IhBtIeaMWSlyPbEXrIN0-97" value="0" style="whiteSpace=wrap;html=1;aspect=fixed;" vertex="1" parent="1">
          <mxGeometry x="519" y="760" width="40" height="40" as="geometry" />
        </mxCell>
        <mxCell id="IhBtIeaMWSlyPbEXrIN0-98" value="" style="endArrow=none;html=1;entryX=0;entryY=0;entryDx=0;entryDy=0;" edge="1" parent="1" target="IhBtIeaMWSlyPbEXrIN0-82">
          <mxGeometry width="50" height="50" relative="1" as="geometry">
            <mxPoint x="359" y="600" as="sourcePoint" />
            <mxPoint x="389" y="620" as="targetPoint" />
          </mxGeometry>
        </mxCell>
        <mxCell id="IhBtIeaMWSlyPbEXrIN0-99" value="x&lt;sup&gt;+&lt;/sup&gt;, x&lt;sup&gt;-&lt;/sup&gt;" style="text;html=1;align=center;verticalAlign=middle;resizable=0;points=[];autosize=1;rotation=45;" vertex="1" parent="1">
          <mxGeometry x="364" y="600" width="40" height="20" as="geometry" />
        </mxCell>
        <mxCell id="IhBtIeaMWSlyPbEXrIN0-100" value="y&lt;sup&gt;+&lt;/sup&gt;, y&lt;span style=&quot;font-size: 10px&quot;&gt;&lt;sup&gt;-&lt;/sup&gt;&lt;/span&gt;" style="text;html=1;align=center;verticalAlign=middle;resizable=0;points=[];autosize=1;rotation=45;" vertex="1" parent="1">
          <mxGeometry x="350" y="615" width="40" height="20" as="geometry" />
        </mxCell>
        <mxCell id="IhBtIeaMWSlyPbEXrIN0-101" value="00" style="text;html=1;align=center;verticalAlign=middle;resizable=0;points=[];autosize=1;" vertex="1" parent="1">
          <mxGeometry x="404" y="620" width="30" height="20" as="geometry" />
        </mxCell>
        <mxCell id="IhBtIeaMWSlyPbEXrIN0-102" value="01" style="text;html=1;align=center;verticalAlign=middle;resizable=0;points=[];autosize=1;" vertex="1" parent="1">
          <mxGeometry x="444" y="620" width="30" height="20" as="geometry" />
        </mxCell>
        <mxCell id="IhBtIeaMWSlyPbEXrIN0-103" value="11" style="text;html=1;align=center;verticalAlign=middle;resizable=0;points=[];autosize=1;" vertex="1" parent="1">
          <mxGeometry x="484" y="620" width="30" height="20" as="geometry" />
        </mxCell>
        <mxCell id="IhBtIeaMWSlyPbEXrIN0-104" value="10" style="text;html=1;align=center;verticalAlign=middle;resizable=0;points=[];autosize=1;" vertex="1" parent="1">
          <mxGeometry x="524" y="620" width="30" height="20" as="geometry" />
        </mxCell>
        <mxCell id="IhBtIeaMWSlyPbEXrIN0-105" value="00" style="text;html=1;align=center;verticalAlign=middle;resizable=0;points=[];autosize=1;" vertex="1" parent="1">
          <mxGeometry x="364" y="650" width="30" height="20" as="geometry" />
        </mxCell>
        <mxCell id="IhBtIeaMWSlyPbEXrIN0-106" value="01" style="text;html=1;align=center;verticalAlign=middle;resizable=0;points=[];autosize=1;" vertex="1" parent="1">
          <mxGeometry x="364" y="690" width="30" height="20" as="geometry" />
        </mxCell>
        <mxCell id="IhBtIeaMWSlyPbEXrIN0-107" value="11" style="text;html=1;align=center;verticalAlign=middle;resizable=0;points=[];autosize=1;" vertex="1" parent="1">
          <mxGeometry x="364" y="730" width="30" height="20" as="geometry" />
        </mxCell>
        <mxCell id="IhBtIeaMWSlyPbEXrIN0-108" value="10" style="text;html=1;align=center;verticalAlign=middle;resizable=0;points=[];autosize=1;" vertex="1" parent="1">
          <mxGeometry x="364" y="770" width="30" height="20" as="geometry" />
        </mxCell>
        <mxCell id="IhBtIeaMWSlyPbEXrIN0-109" value="P = 1" style="text;html=1;align=center;verticalAlign=middle;resizable=0;points=[];autosize=1;" vertex="1" parent="1">
          <mxGeometry x="460" y="520" width="40" height="20" as="geometry" />
        </mxCell>
        <mxCell id="IhBtIeaMWSlyPbEXrIN0-110" value="P = 0" style="text;html=1;align=center;verticalAlign=middle;resizable=0;points=[];autosize=1;" vertex="1" parent="1">
          <mxGeometry x="220" y="520" width="40" height="20" as="geometry" />
        </mxCell>
        <mxCell id="IhBtIeaMWSlyPbEXrIN0-111" value="P = 1" style="text;html=1;align=center;verticalAlign=middle;resizable=0;points=[];autosize=1;" vertex="1" parent="1">
          <mxGeometry x="460" y="800" width="40" height="20" as="geometry" />
        </mxCell>
        <mxCell id="IhBtIeaMWSlyPbEXrIN0-112" value="P = 0" style="text;html=1;align=center;verticalAlign=middle;resizable=0;points=[];autosize=1;" vertex="1" parent="1">
          <mxGeometry x="220" y="800" width="40" height="20" as="geometry" />
        </mxCell>
        <mxCell id="IhBtIeaMWSlyPbEXrIN0-113" value="0" style="whiteSpace=wrap;html=1;aspect=fixed;" vertex="1" parent="1">
          <mxGeometry x="720" y="360" width="40" height="40" as="geometry" />
        </mxCell>
        <mxCell id="IhBtIeaMWSlyPbEXrIN0-114" value="0" style="whiteSpace=wrap;html=1;aspect=fixed;" vertex="1" parent="1">
          <mxGeometry x="760" y="360" width="40" height="40" as="geometry" />
        </mxCell>
        <mxCell id="IhBtIeaMWSlyPbEXrIN0-115" value="" style="whiteSpace=wrap;html=1;aspect=fixed;" vertex="1" parent="1">
          <mxGeometry x="800" y="360" width="40" height="40" as="geometry" />
        </mxCell>
        <mxCell id="IhBtIeaMWSlyPbEXrIN0-116" value="0" style="whiteSpace=wrap;html=1;aspect=fixed;" vertex="1" parent="1">
          <mxGeometry x="840" y="360" width="40" height="40" as="geometry" />
        </mxCell>
        <mxCell id="IhBtIeaMWSlyPbEXrIN0-117" value="0" style="whiteSpace=wrap;html=1;aspect=fixed;" vertex="1" parent="1">
          <mxGeometry x="840" y="400" width="40" height="40" as="geometry" />
        </mxCell>
        <mxCell id="IhBtIeaMWSlyPbEXrIN0-118" value="" style="whiteSpace=wrap;html=1;aspect=fixed;" vertex="1" parent="1">
          <mxGeometry x="800" y="400" width="40" height="40" as="geometry" />
        </mxCell>
        <mxCell id="IhBtIeaMWSlyPbEXrIN0-119" value="0" style="whiteSpace=wrap;html=1;aspect=fixed;" vertex="1" parent="1">
          <mxGeometry x="760" y="400" width="40" height="40" as="geometry" />
        </mxCell>
        <mxCell id="IhBtIeaMWSlyPbEXrIN0-120" value="0" style="whiteSpace=wrap;html=1;aspect=fixed;" vertex="1" parent="1">
          <mxGeometry x="720" y="400" width="40" height="40" as="geometry" />
        </mxCell>
        <mxCell id="IhBtIeaMWSlyPbEXrIN0-121" value="" style="whiteSpace=wrap;html=1;aspect=fixed;" vertex="1" parent="1">
          <mxGeometry x="720" y="440" width="40" height="40" as="geometry" />
        </mxCell>
        <mxCell id="IhBtIeaMWSlyPbEXrIN0-122" value="" style="whiteSpace=wrap;html=1;aspect=fixed;" vertex="1" parent="1">
          <mxGeometry x="760" y="440" width="40" height="40" as="geometry" />
        </mxCell>
        <mxCell id="IhBtIeaMWSlyPbEXrIN0-123" value="" style="whiteSpace=wrap;html=1;aspect=fixed;" vertex="1" parent="1">
          <mxGeometry x="800" y="440" width="40" height="40" as="geometry" />
        </mxCell>
        <mxCell id="IhBtIeaMWSlyPbEXrIN0-124" value="" style="whiteSpace=wrap;html=1;aspect=fixed;" vertex="1" parent="1">
          <mxGeometry x="840" y="440" width="40" height="40" as="geometry" />
        </mxCell>
        <mxCell id="IhBtIeaMWSlyPbEXrIN0-125" value="0" style="whiteSpace=wrap;html=1;aspect=fixed;" vertex="1" parent="1">
          <mxGeometry x="720" y="480" width="40" height="40" as="geometry" />
        </mxCell>
        <mxCell id="IhBtIeaMWSlyPbEXrIN0-126" value="0" style="whiteSpace=wrap;html=1;aspect=fixed;" vertex="1" parent="1">
          <mxGeometry x="760" y="480" width="40" height="40" as="geometry" />
        </mxCell>
        <mxCell id="IhBtIeaMWSlyPbEXrIN0-127" value="" style="whiteSpace=wrap;html=1;aspect=fixed;" vertex="1" parent="1">
          <mxGeometry x="800" y="480" width="40" height="40" as="geometry" />
        </mxCell>
        <mxCell id="IhBtIeaMWSlyPbEXrIN0-128" value="0" style="whiteSpace=wrap;html=1;aspect=fixed;" vertex="1" parent="1">
          <mxGeometry x="840" y="480" width="40" height="40" as="geometry" />
        </mxCell>
        <mxCell id="IhBtIeaMWSlyPbEXrIN0-129" value="" style="endArrow=none;html=1;entryX=0;entryY=0;entryDx=0;entryDy=0;" edge="1" parent="1" target="IhBtIeaMWSlyPbEXrIN0-113">
          <mxGeometry width="50" height="50" relative="1" as="geometry">
            <mxPoint x="680" y="320" as="sourcePoint" />
            <mxPoint x="710" y="340" as="targetPoint" />
          </mxGeometry>
        </mxCell>
        <mxCell id="IhBtIeaMWSlyPbEXrIN0-130" value="x&lt;sup&gt;+&lt;/sup&gt;, x&lt;sup&gt;-&lt;/sup&gt;" style="text;html=1;align=center;verticalAlign=middle;resizable=0;points=[];autosize=1;rotation=45;" vertex="1" parent="1">
          <mxGeometry x="685" y="320" width="40" height="20" as="geometry" />
        </mxCell>
        <mxCell id="IhBtIeaMWSlyPbEXrIN0-131" value="y&lt;sup&gt;+&lt;/sup&gt;, y&lt;span style=&quot;font-size: 10px&quot;&gt;&lt;sup&gt;-&lt;/sup&gt;&lt;/span&gt;" style="text;html=1;align=center;verticalAlign=middle;resizable=0;points=[];autosize=1;rotation=45;" vertex="1" parent="1">
          <mxGeometry x="671" y="335" width="40" height="20" as="geometry" />
        </mxCell>
        <mxCell id="IhBtIeaMWSlyPbEXrIN0-132" value="00" style="text;html=1;align=center;verticalAlign=middle;resizable=0;points=[];autosize=1;" vertex="1" parent="1">
          <mxGeometry x="725" y="340" width="30" height="20" as="geometry" />
        </mxCell>
        <mxCell id="IhBtIeaMWSlyPbEXrIN0-133" value="01" style="text;html=1;align=center;verticalAlign=middle;resizable=0;points=[];autosize=1;" vertex="1" parent="1">
          <mxGeometry x="765" y="340" width="30" height="20" as="geometry" />
        </mxCell>
        <mxCell id="IhBtIeaMWSlyPbEXrIN0-134" value="11" style="text;html=1;align=center;verticalAlign=middle;resizable=0;points=[];autosize=1;" vertex="1" parent="1">
          <mxGeometry x="805" y="340" width="30" height="20" as="geometry" />
        </mxCell>
        <mxCell id="IhBtIeaMWSlyPbEXrIN0-135" value="10" style="text;html=1;align=center;verticalAlign=middle;resizable=0;points=[];autosize=1;" vertex="1" parent="1">
          <mxGeometry x="845" y="340" width="30" height="20" as="geometry" />
        </mxCell>
        <mxCell id="IhBtIeaMWSlyPbEXrIN0-136" value="00" style="text;html=1;align=center;verticalAlign=middle;resizable=0;points=[];autosize=1;" vertex="1" parent="1">
          <mxGeometry x="685" y="370" width="30" height="20" as="geometry" />
        </mxCell>
        <mxCell id="IhBtIeaMWSlyPbEXrIN0-137" value="01" style="text;html=1;align=center;verticalAlign=middle;resizable=0;points=[];autosize=1;" vertex="1" parent="1">
          <mxGeometry x="685" y="410" width="30" height="20" as="geometry" />
        </mxCell>
        <mxCell id="IhBtIeaMWSlyPbEXrIN0-138" value="11" style="text;html=1;align=center;verticalAlign=middle;resizable=0;points=[];autosize=1;" vertex="1" parent="1">
          <mxGeometry x="685" y="450" width="30" height="20" as="geometry" />
        </mxCell>
        <mxCell id="IhBtIeaMWSlyPbEXrIN0-139" value="10" style="text;html=1;align=center;verticalAlign=middle;resizable=0;points=[];autosize=1;" vertex="1" parent="1">
          <mxGeometry x="685" y="490" width="30" height="20" as="geometry" />
        </mxCell>
        <mxCell id="IhBtIeaMWSlyPbEXrIN0-140" value="0" style="whiteSpace=wrap;html=1;aspect=fixed;" vertex="1" parent="1">
          <mxGeometry x="959" y="360" width="40" height="40" as="geometry" />
        </mxCell>
        <mxCell id="IhBtIeaMWSlyPbEXrIN0-141" value="1" style="whiteSpace=wrap;html=1;aspect=fixed;" vertex="1" parent="1">
          <mxGeometry x="999" y="360" width="40" height="40" as="geometry" />
        </mxCell>
        <mxCell id="IhBtIeaMWSlyPbEXrIN0-142" value="" style="whiteSpace=wrap;html=1;aspect=fixed;" vertex="1" parent="1">
          <mxGeometry x="1039" y="360" width="40" height="40" as="geometry" />
        </mxCell>
        <mxCell id="IhBtIeaMWSlyPbEXrIN0-143" value="1" style="whiteSpace=wrap;html=1;aspect=fixed;" vertex="1" parent="1">
          <mxGeometry x="1079" y="360" width="40" height="40" as="geometry" />
        </mxCell>
        <mxCell id="IhBtIeaMWSlyPbEXrIN0-144" value="0" style="whiteSpace=wrap;html=1;aspect=fixed;" vertex="1" parent="1">
          <mxGeometry x="1079" y="400" width="40" height="40" as="geometry" />
        </mxCell>
        <mxCell id="IhBtIeaMWSlyPbEXrIN0-145" value="" style="whiteSpace=wrap;html=1;aspect=fixed;" vertex="1" parent="1">
          <mxGeometry x="1039" y="400" width="40" height="40" as="geometry" />
        </mxCell>
        <mxCell id="IhBtIeaMWSlyPbEXrIN0-146" value="0" style="whiteSpace=wrap;html=1;aspect=fixed;" vertex="1" parent="1">
          <mxGeometry x="999" y="400" width="40" height="40" as="geometry" />
        </mxCell>
        <mxCell id="IhBtIeaMWSlyPbEXrIN0-147" value="1" style="whiteSpace=wrap;html=1;aspect=fixed;" vertex="1" parent="1">
          <mxGeometry x="959" y="400" width="40" height="40" as="geometry" />
        </mxCell>
        <mxCell id="IhBtIeaMWSlyPbEXrIN0-148" value="" style="whiteSpace=wrap;html=1;aspect=fixed;" vertex="1" parent="1">
          <mxGeometry x="959" y="440" width="40" height="40" as="geometry" />
        </mxCell>
        <mxCell id="IhBtIeaMWSlyPbEXrIN0-149" value="" style="whiteSpace=wrap;html=1;aspect=fixed;" vertex="1" parent="1">
          <mxGeometry x="999" y="440" width="40" height="40" as="geometry" />
        </mxCell>
        <mxCell id="IhBtIeaMWSlyPbEXrIN0-150" value="" style="whiteSpace=wrap;html=1;aspect=fixed;" vertex="1" parent="1">
          <mxGeometry x="1039" y="440" width="40" height="40" as="geometry" />
        </mxCell>
        <mxCell id="IhBtIeaMWSlyPbEXrIN0-151" value="" style="whiteSpace=wrap;html=1;aspect=fixed;" vertex="1" parent="1">
          <mxGeometry x="1079" y="440" width="40" height="40" as="geometry" />
        </mxCell>
        <mxCell id="IhBtIeaMWSlyPbEXrIN0-152" value="1" style="whiteSpace=wrap;html=1;aspect=fixed;" vertex="1" parent="1">
          <mxGeometry x="959" y="480" width="40" height="40" as="geometry" />
        </mxCell>
        <mxCell id="IhBtIeaMWSlyPbEXrIN0-153" value="0" style="whiteSpace=wrap;html=1;aspect=fixed;" vertex="1" parent="1">
          <mxGeometry x="999" y="480" width="40" height="40" as="geometry" />
        </mxCell>
        <mxCell id="IhBtIeaMWSlyPbEXrIN0-154" value="" style="whiteSpace=wrap;html=1;aspect=fixed;" vertex="1" parent="1">
          <mxGeometry x="1039" y="480" width="40" height="40" as="geometry" />
        </mxCell>
        <mxCell id="IhBtIeaMWSlyPbEXrIN0-155" value="0" style="whiteSpace=wrap;html=1;aspect=fixed;" vertex="1" parent="1">
          <mxGeometry x="1079" y="480" width="40" height="40" as="geometry" />
        </mxCell>
        <mxCell id="IhBtIeaMWSlyPbEXrIN0-156" value="" style="endArrow=none;html=1;entryX=0;entryY=0;entryDx=0;entryDy=0;" edge="1" parent="1" target="IhBtIeaMWSlyPbEXrIN0-140">
          <mxGeometry width="50" height="50" relative="1" as="geometry">
            <mxPoint x="919" y="320" as="sourcePoint" />
            <mxPoint x="949" y="340" as="targetPoint" />
          </mxGeometry>
        </mxCell>
        <mxCell id="IhBtIeaMWSlyPbEXrIN0-157" value="x&lt;sup&gt;+&lt;/sup&gt;, x&lt;sup&gt;-&lt;/sup&gt;" style="text;html=1;align=center;verticalAlign=middle;resizable=0;points=[];autosize=1;rotation=45;" vertex="1" parent="1">
          <mxGeometry x="924" y="320" width="40" height="20" as="geometry" />
        </mxCell>
        <mxCell id="IhBtIeaMWSlyPbEXrIN0-158" value="y&lt;sup&gt;+&lt;/sup&gt;, y&lt;span style=&quot;font-size: 10px&quot;&gt;&lt;sup&gt;-&lt;/sup&gt;&lt;/span&gt;" style="text;html=1;align=center;verticalAlign=middle;resizable=0;points=[];autosize=1;rotation=45;" vertex="1" parent="1">
          <mxGeometry x="910" y="335" width="40" height="20" as="geometry" />
        </mxCell>
        <mxCell id="IhBtIeaMWSlyPbEXrIN0-159" value="00" style="text;html=1;align=center;verticalAlign=middle;resizable=0;points=[];autosize=1;" vertex="1" parent="1">
          <mxGeometry x="964" y="340" width="30" height="20" as="geometry" />
        </mxCell>
        <mxCell id="IhBtIeaMWSlyPbEXrIN0-160" value="01" style="text;html=1;align=center;verticalAlign=middle;resizable=0;points=[];autosize=1;" vertex="1" parent="1">
          <mxGeometry x="1004" y="340" width="30" height="20" as="geometry" />
        </mxCell>
        <mxCell id="IhBtIeaMWSlyPbEXrIN0-161" value="11" style="text;html=1;align=center;verticalAlign=middle;resizable=0;points=[];autosize=1;" vertex="1" parent="1">
          <mxGeometry x="1044" y="340" width="30" height="20" as="geometry" />
        </mxCell>
        <mxCell id="IhBtIeaMWSlyPbEXrIN0-162" value="10" style="text;html=1;align=center;verticalAlign=middle;resizable=0;points=[];autosize=1;" vertex="1" parent="1">
          <mxGeometry x="1084" y="340" width="30" height="20" as="geometry" />
        </mxCell>
        <mxCell id="IhBtIeaMWSlyPbEXrIN0-163" value="00" style="text;html=1;align=center;verticalAlign=middle;resizable=0;points=[];autosize=1;" vertex="1" parent="1">
          <mxGeometry x="924" y="370" width="30" height="20" as="geometry" />
        </mxCell>
        <mxCell id="IhBtIeaMWSlyPbEXrIN0-164" value="01" style="text;html=1;align=center;verticalAlign=middle;resizable=0;points=[];autosize=1;" vertex="1" parent="1">
          <mxGeometry x="924" y="410" width="30" height="20" as="geometry" />
        </mxCell>
        <mxCell id="IhBtIeaMWSlyPbEXrIN0-165" value="11" style="text;html=1;align=center;verticalAlign=middle;resizable=0;points=[];autosize=1;" vertex="1" parent="1">
          <mxGeometry x="924" y="450" width="30" height="20" as="geometry" />
        </mxCell>
        <mxCell id="IhBtIeaMWSlyPbEXrIN0-166" value="10" style="text;html=1;align=center;verticalAlign=middle;resizable=0;points=[];autosize=1;" vertex="1" parent="1">
          <mxGeometry x="924" y="490" width="30" height="20" as="geometry" />
        </mxCell>
        <mxCell id="IhBtIeaMWSlyPbEXrIN0-167" value="P = 1" style="text;html=1;align=center;verticalAlign=middle;resizable=0;points=[];autosize=1;" vertex="1" parent="1">
          <mxGeometry x="1020" y="520" width="40" height="20" as="geometry" />
        </mxCell>
        <mxCell id="IhBtIeaMWSlyPbEXrIN0-168" value="P = 0" style="text;html=1;align=center;verticalAlign=middle;resizable=0;points=[];autosize=1;" vertex="1" parent="1">
          <mxGeometry x="780" y="520" width="40" height="20" as="geometry" />
        </mxCell>
        <mxCell id="IhBtIeaMWSlyPbEXrIN0-169" value="0" style="whiteSpace=wrap;html=1;aspect=fixed;" vertex="1" parent="1">
          <mxGeometry x="720" y="640" width="40" height="40" as="geometry" />
        </mxCell>
        <mxCell id="IhBtIeaMWSlyPbEXrIN0-170" value="1" style="whiteSpace=wrap;html=1;aspect=fixed;" vertex="1" parent="1">
          <mxGeometry x="760" y="640" width="40" height="40" as="geometry" />
        </mxCell>
        <mxCell id="IhBtIeaMWSlyPbEXrIN0-171" value="" style="whiteSpace=wrap;html=1;aspect=fixed;" vertex="1" parent="1">
          <mxGeometry x="800" y="640" width="40" height="40" as="geometry" />
        </mxCell>
        <mxCell id="IhBtIeaMWSlyPbEXrIN0-172" value="1" style="whiteSpace=wrap;html=1;aspect=fixed;" vertex="1" parent="1">
          <mxGeometry x="840" y="640" width="40" height="40" as="geometry" />
        </mxCell>
        <mxCell id="IhBtIeaMWSlyPbEXrIN0-173" value="0" style="whiteSpace=wrap;html=1;aspect=fixed;" vertex="1" parent="1">
          <mxGeometry x="840" y="680" width="40" height="40" as="geometry" />
        </mxCell>
        <mxCell id="IhBtIeaMWSlyPbEXrIN0-174" value="" style="whiteSpace=wrap;html=1;aspect=fixed;" vertex="1" parent="1">
          <mxGeometry x="800" y="680" width="40" height="40" as="geometry" />
        </mxCell>
        <mxCell id="IhBtIeaMWSlyPbEXrIN0-175" value="0" style="whiteSpace=wrap;html=1;aspect=fixed;" vertex="1" parent="1">
          <mxGeometry x="760" y="680" width="40" height="40" as="geometry" />
        </mxCell>
        <mxCell id="IhBtIeaMWSlyPbEXrIN0-176" value="1" style="whiteSpace=wrap;html=1;aspect=fixed;" vertex="1" parent="1">
          <mxGeometry x="720" y="680" width="40" height="40" as="geometry" />
        </mxCell>
        <mxCell id="IhBtIeaMWSlyPbEXrIN0-177" value="" style="whiteSpace=wrap;html=1;aspect=fixed;" vertex="1" parent="1">
          <mxGeometry x="720" y="720" width="40" height="40" as="geometry" />
        </mxCell>
        <mxCell id="IhBtIeaMWSlyPbEXrIN0-178" value="" style="whiteSpace=wrap;html=1;aspect=fixed;" vertex="1" parent="1">
          <mxGeometry x="760" y="720" width="40" height="40" as="geometry" />
        </mxCell>
        <mxCell id="IhBtIeaMWSlyPbEXrIN0-179" value="" style="whiteSpace=wrap;html=1;aspect=fixed;" vertex="1" parent="1">
          <mxGeometry x="800" y="720" width="40" height="40" as="geometry" />
        </mxCell>
        <mxCell id="IhBtIeaMWSlyPbEXrIN0-180" value="" style="whiteSpace=wrap;html=1;aspect=fixed;" vertex="1" parent="1">
          <mxGeometry x="840" y="720" width="40" height="40" as="geometry" />
        </mxCell>
        <mxCell id="IhBtIeaMWSlyPbEXrIN0-181" value="1" style="whiteSpace=wrap;html=1;aspect=fixed;" vertex="1" parent="1">
          <mxGeometry x="720" y="760" width="40" height="40" as="geometry" />
        </mxCell>
        <mxCell id="IhBtIeaMWSlyPbEXrIN0-182" value="0" style="whiteSpace=wrap;html=1;aspect=fixed;" vertex="1" parent="1">
          <mxGeometry x="760" y="760" width="40" height="40" as="geometry" />
        </mxCell>
        <mxCell id="IhBtIeaMWSlyPbEXrIN0-183" value="" style="whiteSpace=wrap;html=1;aspect=fixed;" vertex="1" parent="1">
          <mxGeometry x="800" y="760" width="40" height="40" as="geometry" />
        </mxCell>
        <mxCell id="IhBtIeaMWSlyPbEXrIN0-184" value="0" style="whiteSpace=wrap;html=1;aspect=fixed;" vertex="1" parent="1">
          <mxGeometry x="840" y="760" width="40" height="40" as="geometry" />
        </mxCell>
        <mxCell id="IhBtIeaMWSlyPbEXrIN0-185" value="" style="endArrow=none;html=1;entryX=0;entryY=0;entryDx=0;entryDy=0;" edge="1" parent="1" target="IhBtIeaMWSlyPbEXrIN0-169">
          <mxGeometry width="50" height="50" relative="1" as="geometry">
            <mxPoint x="680" y="600" as="sourcePoint" />
            <mxPoint x="710" y="620" as="targetPoint" />
          </mxGeometry>
        </mxCell>
        <mxCell id="IhBtIeaMWSlyPbEXrIN0-186" value="x&lt;sup&gt;+&lt;/sup&gt;, x&lt;sup&gt;-&lt;/sup&gt;" style="text;html=1;align=center;verticalAlign=middle;resizable=0;points=[];autosize=1;rotation=45;" vertex="1" parent="1">
          <mxGeometry x="685" y="600" width="40" height="20" as="geometry" />
        </mxCell>
        <mxCell id="IhBtIeaMWSlyPbEXrIN0-187" value="y&lt;sup&gt;+&lt;/sup&gt;, y&lt;span style=&quot;font-size: 10px&quot;&gt;&lt;sup&gt;-&lt;/sup&gt;&lt;/span&gt;" style="text;html=1;align=center;verticalAlign=middle;resizable=0;points=[];autosize=1;rotation=45;" vertex="1" parent="1">
          <mxGeometry x="671" y="615" width="40" height="20" as="geometry" />
        </mxCell>
        <mxCell id="IhBtIeaMWSlyPbEXrIN0-188" value="00" style="text;html=1;align=center;verticalAlign=middle;resizable=0;points=[];autosize=1;" vertex="1" parent="1">
          <mxGeometry x="725" y="620" width="30" height="20" as="geometry" />
        </mxCell>
        <mxCell id="IhBtIeaMWSlyPbEXrIN0-189" value="01" style="text;html=1;align=center;verticalAlign=middle;resizable=0;points=[];autosize=1;" vertex="1" parent="1">
          <mxGeometry x="765" y="620" width="30" height="20" as="geometry" />
        </mxCell>
        <mxCell id="IhBtIeaMWSlyPbEXrIN0-190" value="11" style="text;html=1;align=center;verticalAlign=middle;resizable=0;points=[];autosize=1;" vertex="1" parent="1">
          <mxGeometry x="805" y="620" width="30" height="20" as="geometry" />
        </mxCell>
        <mxCell id="IhBtIeaMWSlyPbEXrIN0-191" value="10" style="text;html=1;align=center;verticalAlign=middle;resizable=0;points=[];autosize=1;" vertex="1" parent="1">
          <mxGeometry x="845" y="620" width="30" height="20" as="geometry" />
        </mxCell>
        <mxCell id="IhBtIeaMWSlyPbEXrIN0-192" value="00" style="text;html=1;align=center;verticalAlign=middle;resizable=0;points=[];autosize=1;" vertex="1" parent="1">
          <mxGeometry x="685" y="650" width="30" height="20" as="geometry" />
        </mxCell>
        <mxCell id="IhBtIeaMWSlyPbEXrIN0-193" value="01" style="text;html=1;align=center;verticalAlign=middle;resizable=0;points=[];autosize=1;" vertex="1" parent="1">
          <mxGeometry x="685" y="690" width="30" height="20" as="geometry" />
        </mxCell>
        <mxCell id="IhBtIeaMWSlyPbEXrIN0-194" value="11" style="text;html=1;align=center;verticalAlign=middle;resizable=0;points=[];autosize=1;" vertex="1" parent="1">
          <mxGeometry x="685" y="730" width="30" height="20" as="geometry" />
        </mxCell>
        <mxCell id="IhBtIeaMWSlyPbEXrIN0-195" value="10" style="text;html=1;align=center;verticalAlign=middle;resizable=0;points=[];autosize=1;" vertex="1" parent="1">
          <mxGeometry x="685" y="770" width="30" height="20" as="geometry" />
        </mxCell>
        <mxCell id="IhBtIeaMWSlyPbEXrIN0-196" value="0" style="whiteSpace=wrap;html=1;aspect=fixed;" vertex="1" parent="1">
          <mxGeometry x="959" y="640" width="40" height="40" as="geometry" />
        </mxCell>
        <mxCell id="IhBtIeaMWSlyPbEXrIN0-197" value="0" style="whiteSpace=wrap;html=1;aspect=fixed;" vertex="1" parent="1">
          <mxGeometry x="999" y="640" width="40" height="40" as="geometry" />
        </mxCell>
        <mxCell id="IhBtIeaMWSlyPbEXrIN0-198" value="" style="whiteSpace=wrap;html=1;aspect=fixed;" vertex="1" parent="1">
          <mxGeometry x="1039" y="640" width="40" height="40" as="geometry" />
        </mxCell>
        <mxCell id="IhBtIeaMWSlyPbEXrIN0-199" value="0" style="whiteSpace=wrap;html=1;aspect=fixed;" vertex="1" parent="1">
          <mxGeometry x="1079" y="640" width="40" height="40" as="geometry" />
        </mxCell>
        <mxCell id="IhBtIeaMWSlyPbEXrIN0-200" value="" style="whiteSpace=wrap;html=1;aspect=fixed;" vertex="1" parent="1">
          <mxGeometry x="1079" y="680" width="40" height="40" as="geometry" />
        </mxCell>
        <mxCell id="IhBtIeaMWSlyPbEXrIN0-201" value="" style="whiteSpace=wrap;html=1;aspect=fixed;" vertex="1" parent="1">
          <mxGeometry x="1039" y="680" width="40" height="40" as="geometry" />
        </mxCell>
        <mxCell id="IhBtIeaMWSlyPbEXrIN0-202" value="0" style="whiteSpace=wrap;html=1;aspect=fixed;" vertex="1" parent="1">
          <mxGeometry x="999" y="680" width="40" height="40" as="geometry" />
        </mxCell>
        <mxCell id="IhBtIeaMWSlyPbEXrIN0-203" value="0" style="whiteSpace=wrap;html=1;aspect=fixed;" vertex="1" parent="1">
          <mxGeometry x="959" y="680" width="40" height="40" as="geometry" />
        </mxCell>
        <mxCell id="IhBtIeaMWSlyPbEXrIN0-204" value="" style="whiteSpace=wrap;html=1;aspect=fixed;" vertex="1" parent="1">
          <mxGeometry x="959" y="720" width="40" height="40" as="geometry" />
        </mxCell>
        <mxCell id="IhBtIeaMWSlyPbEXrIN0-205" value="" style="whiteSpace=wrap;html=1;aspect=fixed;" vertex="1" parent="1">
          <mxGeometry x="999" y="720" width="40" height="40" as="geometry" />
        </mxCell>
        <mxCell id="IhBtIeaMWSlyPbEXrIN0-206" value="" style="whiteSpace=wrap;html=1;aspect=fixed;" vertex="1" parent="1">
          <mxGeometry x="1039" y="720" width="40" height="40" as="geometry" />
        </mxCell>
        <mxCell id="IhBtIeaMWSlyPbEXrIN0-207" value="" style="whiteSpace=wrap;html=1;aspect=fixed;" vertex="1" parent="1">
          <mxGeometry x="1079" y="720" width="40" height="40" as="geometry" />
        </mxCell>
        <mxCell id="IhBtIeaMWSlyPbEXrIN0-208" value="0" style="whiteSpace=wrap;html=1;aspect=fixed;" vertex="1" parent="1">
          <mxGeometry x="959" y="760" width="40" height="40" as="geometry" />
        </mxCell>
        <mxCell id="IhBtIeaMWSlyPbEXrIN0-209" value="0" style="whiteSpace=wrap;html=1;aspect=fixed;" vertex="1" parent="1">
          <mxGeometry x="999" y="760" width="40" height="40" as="geometry" />
        </mxCell>
        <mxCell id="IhBtIeaMWSlyPbEXrIN0-210" value="" style="whiteSpace=wrap;html=1;aspect=fixed;" vertex="1" parent="1">
          <mxGeometry x="1039" y="760" width="40" height="40" as="geometry" />
        </mxCell>
        <mxCell id="IhBtIeaMWSlyPbEXrIN0-211" value="0" style="whiteSpace=wrap;html=1;aspect=fixed;" vertex="1" parent="1">
          <mxGeometry x="1079" y="760" width="40" height="40" as="geometry" />
        </mxCell>
        <mxCell id="IhBtIeaMWSlyPbEXrIN0-212" value="" style="endArrow=none;html=1;entryX=0;entryY=0;entryDx=0;entryDy=0;" edge="1" parent="1" target="IhBtIeaMWSlyPbEXrIN0-196">
          <mxGeometry width="50" height="50" relative="1" as="geometry">
            <mxPoint x="919" y="600" as="sourcePoint" />
            <mxPoint x="949" y="620" as="targetPoint" />
          </mxGeometry>
        </mxCell>
        <mxCell id="IhBtIeaMWSlyPbEXrIN0-213" value="x&lt;sup&gt;+&lt;/sup&gt;, x&lt;sup&gt;-&lt;/sup&gt;" style="text;html=1;align=center;verticalAlign=middle;resizable=0;points=[];autosize=1;rotation=45;" vertex="1" parent="1">
          <mxGeometry x="924" y="600" width="40" height="20" as="geometry" />
        </mxCell>
        <mxCell id="IhBtIeaMWSlyPbEXrIN0-214" value="y&lt;sup&gt;+&lt;/sup&gt;, y&lt;span style=&quot;font-size: 10px&quot;&gt;&lt;sup&gt;-&lt;/sup&gt;&lt;/span&gt;" style="text;html=1;align=center;verticalAlign=middle;resizable=0;points=[];autosize=1;rotation=45;" vertex="1" parent="1">
          <mxGeometry x="910" y="615" width="40" height="20" as="geometry" />
        </mxCell>
        <mxCell id="IhBtIeaMWSlyPbEXrIN0-215" value="00" style="text;html=1;align=center;verticalAlign=middle;resizable=0;points=[];autosize=1;" vertex="1" parent="1">
          <mxGeometry x="964" y="620" width="30" height="20" as="geometry" />
        </mxCell>
        <mxCell id="IhBtIeaMWSlyPbEXrIN0-216" value="01" style="text;html=1;align=center;verticalAlign=middle;resizable=0;points=[];autosize=1;" vertex="1" parent="1">
          <mxGeometry x="1004" y="620" width="30" height="20" as="geometry" />
        </mxCell>
        <mxCell id="IhBtIeaMWSlyPbEXrIN0-217" value="11" style="text;html=1;align=center;verticalAlign=middle;resizable=0;points=[];autosize=1;" vertex="1" parent="1">
          <mxGeometry x="1044" y="620" width="30" height="20" as="geometry" />
        </mxCell>
        <mxCell id="IhBtIeaMWSlyPbEXrIN0-218" value="10" style="text;html=1;align=center;verticalAlign=middle;resizable=0;points=[];autosize=1;" vertex="1" parent="1">
          <mxGeometry x="1084" y="620" width="30" height="20" as="geometry" />
        </mxCell>
        <mxCell id="IhBtIeaMWSlyPbEXrIN0-219" value="00" style="text;html=1;align=center;verticalAlign=middle;resizable=0;points=[];autosize=1;" vertex="1" parent="1">
          <mxGeometry x="924" y="650" width="30" height="20" as="geometry" />
        </mxCell>
        <mxCell id="IhBtIeaMWSlyPbEXrIN0-220" value="01" style="text;html=1;align=center;verticalAlign=middle;resizable=0;points=[];autosize=1;" vertex="1" parent="1">
          <mxGeometry x="924" y="690" width="30" height="20" as="geometry" />
        </mxCell>
        <mxCell id="IhBtIeaMWSlyPbEXrIN0-221" value="11" style="text;html=1;align=center;verticalAlign=middle;resizable=0;points=[];autosize=1;" vertex="1" parent="1">
          <mxGeometry x="924" y="730" width="30" height="20" as="geometry" />
        </mxCell>
        <mxCell id="IhBtIeaMWSlyPbEXrIN0-222" value="10" style="text;html=1;align=center;verticalAlign=middle;resizable=0;points=[];autosize=1;" vertex="1" parent="1">
          <mxGeometry x="924" y="770" width="30" height="20" as="geometry" />
        </mxCell>
        <mxCell id="IhBtIeaMWSlyPbEXrIN0-223" value="P = 1" style="text;html=1;align=center;verticalAlign=middle;resizable=0;points=[];autosize=1;" vertex="1" parent="1">
          <mxGeometry x="1020" y="800" width="40" height="20" as="geometry" />
        </mxCell>
        <mxCell id="IhBtIeaMWSlyPbEXrIN0-224" value="P = 0" style="text;html=1;align=center;verticalAlign=middle;resizable=0;points=[];autosize=1;" vertex="1" parent="1">
          <mxGeometry x="780" y="800" width="40" height="20" as="geometry" />
        </mxCell>
        <mxCell id="IhBtIeaMWSlyPbEXrIN0-225" value="t&lt;sup style=&quot;font-size: 36px;&quot;&gt;+&lt;/sup&gt;" style="text;html=1;strokeColor=none;fillColor=none;align=center;verticalAlign=middle;whiteSpace=wrap;rounded=0;fontSize=36;" vertex="1" parent="1">
          <mxGeometry x="60" y="410" width="40" height="40" as="geometry" />
        </mxCell>
        <mxCell id="IhBtIeaMWSlyPbEXrIN0-226" value="t&lt;span style=&quot;font-size: 36px;&quot;&gt;&lt;sup style=&quot;font-size: 36px;&quot;&gt;-&lt;/sup&gt;&lt;/span&gt;" style="text;html=1;strokeColor=none;fillColor=none;align=center;verticalAlign=middle;whiteSpace=wrap;rounded=0;fontSize=36;" vertex="1" parent="1">
          <mxGeometry x="60" y="690" width="40" height="40" as="geometry" />
        </mxCell>
        <mxCell id="IhBtIeaMWSlyPbEXrIN0-227" value="&lt;span style=&quot;font-size: 36px&quot;&gt;w&lt;/span&gt;&lt;sup style=&quot;font-size: 36px&quot;&gt;+&lt;/sup&gt;" style="text;html=1;strokeColor=none;fillColor=none;align=center;verticalAlign=middle;whiteSpace=wrap;rounded=0;fontSize=36;" vertex="1" parent="1">
          <mxGeometry x="620" y="410" width="40" height="40" as="geometry" />
        </mxCell>
        <mxCell id="IhBtIeaMWSlyPbEXrIN0-228" value="&lt;span style=&quot;font-size: 36px&quot;&gt;&lt;span style=&quot;font-size: 36px&quot;&gt;w&lt;/span&gt;&lt;sup style=&quot;font-size: 36px&quot;&gt;-&lt;/sup&gt;&lt;/span&gt;" style="text;html=1;strokeColor=none;fillColor=none;align=center;verticalAlign=middle;whiteSpace=wrap;rounded=0;fontSize=36;" vertex="1" parent="1">
          <mxGeometry x="620" y="690" width="40" height="40" as="geometry" />
        </mxCell>
        <mxCell id="IhBtIeaMWSlyPbEXrIN0-229" value="" style="endArrow=none;html=1;fontSize=36;" edge="1" parent="1">
          <mxGeometry width="50" height="50" relative="1" as="geometry">
            <mxPoint x="600" y="820" as="sourcePoint" />
            <mxPoint x="600" y="320" as="targetPoint" />
          </mxGeometry>
        </mxCell>
      </root>
    </mxGraphModel>
  </diagram>
</mxfile>
